<?xml version="1.0" encoding="UTF-8"?><svg id="Clearspace_Logos" xmlns="http://www.w3.org/2000/svg" xmlns:xlink="http://www.w3.org/1999/xlink" viewBox="0 0 133 105"><defs><style>.cls-1{fill:url(#Launch_Gradient_2022);}</style><linearGradient id="Launch_Gradient_2022" x1="32.07" y1="28.36" x2="101" y2="76.63" gradientUnits="userSpaceOnUse"><stop offset="0" stop-color="#013760"/><stop offset=".35" stop-color="#5c2275"/><stop offset=".7" stop-color="#de1b83"/><stop offset="1" stop-color="#f64d05"/></linearGradient></defs><path id="Launch_UN-unbordered_color" class="cls-1" d="M30.59,30.47h15.16v7.37c0,5.77-.06,11.59,0,17.36,.06,4.58,2.38,7.13,6.48,7.13s6.3-2.44,6.54-7.08c.12-3.33,.06-6.72,.65-9.93,1.72-9.57,8.86-15.7,18.79-16.35,7.49-.48,14.39,.95,19.68,6.84,2.62,2.85,4.34,6.3,4.46,10.05,.3,9.51,.12,19.03,.12,28.66h-15.1v-2.44c0-7.61,.06-15.22-.06-22.89-.12-4.22-2.74-6.6-6.84-6.54-3.33,.06-5.83,2.38-6.06,5.77-.18,2.5-.36,5.05-.42,7.55-.24,11.42-7.55,19.26-19.03,20.04-7.73,.54-14.86-1.01-20.16-7.31-2.5-2.97-4.04-6.42-4.16-10.17-.24-9.22-.06-18.49-.06-28.06"/></svg>