<?xml version="1.0" encoding="UTF-8"?>
<svg id="Clearspace_Logos" xmlns="http://www.w3.org/2000/svg"
    viewBox="0 0 112 112">
    <defs>
        <style>
            .cls-1 {
                fill: #fff;
            }
        </style>
    </defs>
    <path id="Launch_UN-bordered_white" class="cls-1" 
        d="M92,92H20V20H92V92Zm-69.47-2.53H89.47V22.53H22.53V89.47Zm10.16-47.77c0,6.21-.12,12.23,.04,18.21,.08,2.43,1.08,4.67,2.7,6.6,3.43,4.09,8.06,5.09,13.08,4.74,7.44-.5,12.19-5.59,12.34-13,.04-1.62,.15-3.28,.27-4.9,.15-2.2,1.77-3.7,3.93-3.74,2.66-.04,4.36,1.5,4.44,4.24,.08,4.98,.04,9.91,.04,14.85v1.58h9.8c0-6.25,.12-12.42-.08-18.59-.08-2.43-1.2-4.67-2.89-6.52-3.43-3.82-7.91-4.74-12.77-4.44-6.44,.42-11.07,4.4-12.19,10.61-.39,2.08-.35,4.28-.42,6.44-.15,3.01-1.58,4.59-4.24,4.59s-4.17-1.66-4.2-4.63c-.04-3.74,0-7.52,0-11.26v-4.78h-9.84" />
</svg>